<?xml version="1.0" encoding="UTF-8"?>
<svg id="Layer_1" data-name="Layer 1" xmlns="http://www.w3.org/2000/svg" viewBox="0 0 47.85 38.21">
  <defs>
    <style>
      .cls-1 {
        fill: #b6d433;
      }
    </style>
  </defs>
  <g>
    <path class="cls-1" d="m26.68,19.95l-6.53-3.84L29.25,2.27l1.36-2.27-3.48,1.14C16.58,7.86,8.66,12.88,3.35,16.27c.09-.06.16-.11-.35.22-.79.51-1.17,1.18.06,1.83l6.28,4.14L.5,36.01l2.11,1.12h0s.01,0,.01,0c0,0,8.05-5.12,24.17-15.33l.32-.24c.39-.28.62-1.06-.42-1.61Zm-1.25,1.12l-.27.21c-13.75,8.98-20.61,13.49-20.61,13.49l-1.84-.94,8.44-11.95-6.45-3.3c-1.07-.55-.75-1.13-.08-1.57.44-.29.38-.25.3-.19,4.52-2.98,11.28-7.41,20.28-13.32l1.84.94-8.44,11.95,6.45,3.3c.9.46.72,1.14.39,1.38Z"/>
    <path class="cls-1" d="m18.45,19.05l-2.35-.98,2.63-4.42-.67-.28c-2.99,2.32-5.24,4.06-6.74,5.23.03-.02.05-.04-.1.07-.22.18-.32.39.07.55l2.35.98-2.63,4.42.67.28s2.28-1.77,6.85-5.3l.09-.08c.11-.1.16-.34-.17-.47Z"/>
    <polygon class="cls-1" points=".5 36.01 .49 36 0 38.21 2.61 37.12 .5 36.01 .5 36.01"/>
  </g>
  <path class="cls-1" d="m37.09,11.42c-.08-.5-.62-.96-1.14-.83-2.43.57-4.85,1.19-7.26,1.87-.52.15-.92.57-.83,1.14.08.49.62.98,1.14.83,2.41-.67,4.82-1.3,7.26-1.87.53-.12.92-.58.83-1.14Z"/>
  <path class="cls-1" d="m42.12,4.15c-5.08,1.51-10.23,2.8-15.42,3.87-1.26.26-.73,2.19.53,1.93,5.19-1.07,10.34-2.36,15.42-3.87,1.23-.37.71-2.3-.53-1.93Z"/>
  <path class="cls-1" d="m46.6,12.81c-6,1.23-11.94,2.79-17.77,4.66-1.22.39-.7,2.32.53,1.93,5.84-1.87,11.77-3.43,17.77-4.66,1.26-.26.73-2.19-.53-1.93Z"/>
</svg>